<?xml version="1.0" ?><svg viewBox="0 0 32 32" xmlns="http://www.w3.org/2000/svg" xmlns:xlink="http://www.w3.org/1999/xlink"><style>:root>svg{display:none}:root>svg:target{display:block}</style><svg viewBox="0 0 32 32" id="blood-donation-health-medical-svgrepo-com" xmlns="http://www.w3.org/2000/svg"><path d="M21 6v-.17A3.84 3.84 0 0017.17 2h-2.34A3.84 3.84 0 0011 5.83V6a5 5 0 00-5 5v13a2 2 0 002 2h7v2a1 1 0 002 0v-2h7a2 2 0 002-2V11a5 5 0 00-5-5zm-8-.17A1.83 1.83 0 0114.83 4h2.34A1.83 1.83 0 0119 5.83V6h-6zM11 8h10a3 3 0 013 3v4h-4.69v-.33c0-1.49-1.92-4.38-2.51-5.24a1 1 0 00-1.64 0c-.59.86-2.51 3.75-2.51 5.24V15H8v-4a3 3 0 013-3zm3.91 7.44a1.32 1.32 0 01-.24-.77A9.52 9.52 0 0116 11.85a9.52 9.52 0 011.33 2.82 1.34 1.34 0 01-.23.76 1.4 1.4 0 01-2.19.01zM8 24v-7h5.64a3.28 3.28 0 004.72 0H24v7z" data-name="Layer 6"/></svg><svg viewBox="0 0 32 32" id="health-medical-thermometer-svgrepo-com" xmlns="http://www.w3.org/2000/svg"><path d="M24.63 2a5.38 5.38 0 00-5.37 5.08L7.14 19.2a3.46 3.46 0 00-.3 4.54l-4.55 4.55a1 1 0 000 1.42 1 1 0 001.42 0l4.55-4.55a3.41 3.41 0 002.08.72 3.47 3.47 0 002.46-1l12.12-12.14A5.37 5.37 0 0024.63 2zm.08 8.75h-.18a1 1 0 00-.73.29L11.39 23.45a1.48 1.48 0 01-1.69.26L23.58 9.83a1 1 0 00-1.41-1.41L8.29 22.3a1.48 1.48 0 01.26-1.69L21 8.2a1 1 0 00.29-.73v-.1a3.38 3.38 0 113.46 3.37z" data-name="Layer 13"/></svg><svg viewBox="0 0 32 32" id="hospital-medical-meidicne-svgrepo-com" xmlns="http://www.w3.org/2000/svg"><g data-name="Layer 14"><path d="M29 15h-3V9a1 1 0 00-1-1h-3V5.89L28.71 8A.92.92 0 0029 8a1 1 0 00.29-2l-13-4a1.14 1.14 0 00-.58 0l-13 4a1 1 0 10.58 2L10 5.89V8H7a1 1 0 00-1 1v6H3a1 1 0 00-1 1v13a1 1 0 001 1h26a1 1 0 001-1V16a1 1 0 00-1-1zm-9-9.72V12h-8V5.28l4-1.23zM4 17h2v11H4zm4-1v-6h2v3a1 1 0 001 1h10a1 1 0 001-1v-3h2v18h-3v-7a1 1 0 00-1-1h-8a1 1 0 00-1 1v7H8zm5 12v-6h6v6zm15 0h-2V17h2z"/><path d="M14 9h1v1a1 1 0 002 0V9h1a1 1 0 000-2h-1V6a1 1 0 00-2 0v1h-1a1 1 0 000 2z"/></g></svg></svg>