<svg width="79" height="36" viewBox="0 0 79 36" fill="none" xmlns="http://www.w3.org/2000/svg">
  <path d="M46.5289 23.1947C46.4563 22.8132 45.1314 15.4569 44.9681 13.8584C44.8955 13.041 44.8229 11.7332 44.7503 9.97134C44.6777 8.19128 44.5688 6.84715 44.4236 5.97528C44.351 5.53934 44.1514 5.12157 43.8247 4.72197C43.4617 4.26787 43.0261 4.03174 42.5543 4.03174C41.2657 4.03174 41.1387 4.86728 41.1387 5.21239C41.1387 5.57567 41.175 6.04793 41.2657 6.61102C41.3565 7.21043 41.4291 7.64636 41.4472 7.86433C41.6468 11.6606 42.1187 15.8565 42.8447 20.3248C42.9898 21.1058 43.1532 22.3591 43.1532 22.3591C43.5343 24.2119 45.331 24.0847 45.331 24.0847C45.6577 24.0847 46.2566 23.7941 46.4018 23.5943C46.5289 23.4127 46.5652 23.4127 46.5289 23.1947Z" fill="#3DB54A"/>
  <path d="M60.9936 9.24479C59.578 7.22859 57.9809 5.8118 56.2023 5.01259C54.6778 4.34053 53.5889 4.03174 52.8811 4.03174C52.2277 4.03174 51.6288 4.15889 51.1207 4.39502C50.1769 4.83095 49.9773 5.50302 49.9773 5.99344C49.9773 6.30223 50.0317 6.72 50.1406 7.24675C50.2314 7.73718 50.2858 8.10046 50.304 8.30026C50.5944 13.8221 50.8666 17.6547 51.1207 19.6527C51.2659 20.906 51.3566 21.7416 51.3929 22.1957V22.2502C51.7014 23.7941 52.7178 24.121 53.5163 24.121H53.6615L53.7704 24.0484C54.2241 23.7396 54.4963 23.449 54.6234 23.1584L54.6415 23.122C54.6597 23.0312 54.696 22.8859 54.7141 22.559C54.7504 22.559 54.7867 22.559 54.8049 22.559C55.6942 22.559 56.8194 22.1957 58.235 21.4328C59.4328 20.7789 60.3947 20.0887 61.0843 19.3984C62.4818 18.0543 63.1714 16.6557 63.1714 15.2752C63.1533 13.3498 62.4273 11.3336 60.9936 9.24479ZM53.4619 9.49908C53.4437 8.53639 53.3348 7.68269 53.1715 6.95613C53.4619 6.81082 53.6433 6.79266 53.7522 6.79266C53.7885 6.79266 53.97 6.81082 54.8049 7.10144C56.166 7.57371 57.4183 8.51823 58.5254 9.93502C59.6869 11.3881 60.2676 12.8231 60.2676 14.2035C60.2676 15.4387 59.5235 16.6557 58.0353 17.8C56.8738 18.7082 55.6034 19.3439 54.3148 19.7072C53.7522 16.0926 53.48 13.7131 53.48 12.587V9.80787C53.48 9.75338 53.48 9.69889 53.48 9.64439L53.4619 9.49908Z" fill="#F15A22"/>
  <path d="M78.0171 15.8564C76.8737 14.6213 75.2585 13.6404 73.3347 12.8049C72.391 12.3871 71.2294 11.6242 69.9046 10.5162C67.9627 8.89962 67.6723 8.10041 67.6723 7.77346C67.6723 7.17405 68.9064 7.06507 69.6505 7.06507C70.5942 7.06507 71.4654 7.33753 72.2639 7.86428C72.7539 8.19123 73.3347 8.71799 73.9699 9.42638C74.7321 10.2801 75.0588 10.4617 75.3492 10.4617C76.0026 10.4617 76.4018 10.0258 76.4018 9.33556C76.4018 8.42736 75.6577 7.37385 74.1151 6.12054L74.0969 6.10238C71.792 4.4313 69.5235 4.08618 69.0334 4.08618C67.9445 4.08618 67.1097 4.23149 66.4926 4.54028C66.293 4.61294 65.5126 4.97621 65.1859 5.43031C64.8411 5.92074 64.6777 6.33851 64.6777 6.73812C64.6777 8.44553 66.057 10.4254 68.9064 12.8049C69.0153 12.8957 72.0098 14.6758 73.2802 15.3478C76.0026 16.9281 76.1296 17.6002 76.1477 17.7273C76.1477 18.6355 75.1496 19.4347 73.1895 20.1249C71.4835 20.7425 69.9409 21.0331 68.5797 21.0331C67.8901 21.0331 67.5634 20.8697 67.5634 20.8697C67.5634 20.8697 66.6196 20.2702 66.1115 20.797C65.7304 21.3056 65.8756 23.013 68.0171 23.6306C68.8338 23.8667 69.6505 23.9939 70.4672 23.9939C70.6305 23.9939 73.8973 23.8485 76.42 22.2683C78.126 21.1421 78.9971 19.6527 78.9971 17.8363C79.0334 17.3277 78.7249 16.6193 78.0171 15.8564Z" fill="#3A6FB6"/>
  <path d="M48.4891 30.7687C48.4709 30.7687 48.4528 30.7687 48.4346 30.805L48.1443 31.5497C48.0898 31.6769 48.0717 31.804 48.0717 31.8767C48.0717 31.9675 48.1261 32.0401 48.2895 32.0401H48.3621C48.4165 32.0401 48.4346 32.0583 48.4346 32.0765C48.4346 32.1128 48.3983 32.131 48.3439 32.131C48.1806 32.131 47.9446 32.1128 47.7813 32.1128C47.7268 32.1128 47.4365 32.131 47.1642 32.131C47.0916 32.131 47.0735 32.1128 47.0735 32.0765C47.0735 32.0401 47.0916 32.0401 47.1279 32.0401C47.1824 32.0401 47.255 32.0401 47.2913 32.022C47.5272 31.9856 47.6361 31.8222 47.7268 31.5497L49.0336 28.262C49.088 28.1167 49.1243 28.0441 49.1787 28.0441C49.2332 28.0441 49.2513 28.0986 49.3058 28.2075C49.4328 28.4982 50.2677 30.6233 50.6125 31.4226C50.8121 31.8948 50.9573 31.9675 51.0662 31.9856C51.1388 32.0038 51.2296 32.0038 51.284 32.0038C51.3203 32.0038 51.3566 32.0038 51.3566 32.0401C51.3566 32.0765 51.3022 32.0946 51.1207 32.0946C50.9392 32.0946 50.5581 32.0946 50.1225 32.0765C50.0317 32.0765 49.9591 32.0765 49.9591 32.0401C49.9591 32.0038 49.9773 32.0038 50.0317 31.9856C50.068 31.9675 50.1043 31.9311 50.0862 31.8585L49.6688 30.7505C49.6506 30.7142 49.6506 30.7142 49.6143 30.7142H48.4891V30.7687ZM49.5599 30.5144C49.578 30.5144 49.5962 30.4962 49.578 30.478L49.1062 29.1884C49.1062 29.1702 49.088 29.1339 49.088 29.1339C49.0699 29.1339 49.0698 29.1521 49.0517 29.1884L48.5617 30.478C48.5617 30.4962 48.5617 30.5144 48.5798 30.5144H49.5599Z" fill="#515151"/>
  <path d="M52.4453 31.6406C51.9372 31.1865 51.792 30.6053 51.792 30.0967C51.792 29.7334 51.9009 29.1158 52.409 28.6617C52.7902 28.3166 53.2802 28.0986 54.0606 28.0986C54.3873 28.0986 54.5869 28.1168 54.8228 28.1531C55.0225 28.1713 55.1858 28.2258 55.3492 28.2439C55.4036 28.2439 55.4217 28.2803 55.4217 28.2984C55.4217 28.3348 55.4036 28.4074 55.3855 28.5891C55.3673 28.7525 55.3855 29.0432 55.3673 29.1521C55.3673 29.2248 55.3491 29.2793 55.3129 29.2793C55.2766 29.2793 55.2584 29.243 55.2584 29.1703C55.2584 29.0068 55.1858 28.8252 55.0588 28.698C54.8773 28.5164 54.478 28.3711 53.988 28.3711C53.5343 28.3711 53.2439 28.4801 53.008 28.698C52.6268 29.0432 52.5179 29.5517 52.5179 30.0603C52.5179 31.3136 53.4617 31.9131 54.1695 31.9131C54.6413 31.9131 54.9136 31.8586 55.1314 31.6224C55.2221 31.5316 55.2947 31.3681 55.3129 31.2773C55.331 31.1865 55.331 31.1683 55.3855 31.1683C55.4217 31.1683 55.4399 31.2047 55.4399 31.241C55.4399 31.2955 55.3854 31.7496 55.331 31.9312C55.3129 32.022 55.2766 32.0402 55.1858 32.0765C54.9862 32.1673 54.5869 32.2037 54.2421 32.2037C53.5161 32.2037 52.9172 32.0584 52.4453 31.6406Z" fill="#515151"/>
  <path d="M57.3273 30.7688C57.3092 30.7688 57.291 30.7688 57.2729 30.8051L57.0007 31.5498C56.9462 31.677 56.9281 31.8041 56.9281 31.8768C56.9281 31.9676 56.9825 32.0403 57.1459 32.0403H57.2184C57.2729 32.0403 57.291 32.0584 57.291 32.0766C57.291 32.1129 57.2547 32.1311 57.2003 32.1311C57.037 32.1311 56.801 32.1129 56.6377 32.1129C56.5832 32.1129 56.2929 32.1311 56.0206 32.1311C55.948 32.1311 55.9117 32.1129 55.9117 32.0766C55.9117 32.0403 55.9299 32.0403 55.9662 32.0403C56.0206 32.0403 56.0932 32.0403 56.1295 32.0221C56.3655 31.9858 56.4744 31.8223 56.5651 31.5498L57.8718 28.2622C57.9444 28.1168 57.9626 28.0442 58.017 28.0442C58.0714 28.0442 58.0896 28.0987 58.144 28.2077C58.2711 28.4983 59.1059 30.6235 59.4326 31.4227C59.6322 31.8949 59.7774 31.9676 59.8863 31.9858C59.9589 32.0039 60.0497 32.0039 60.1041 32.0039C60.1404 32.0039 60.1767 32.0039 60.1767 32.0403C60.1767 32.0766 60.1222 32.0947 59.9408 32.0947C59.7593 32.0947 59.3781 32.0947 58.9426 32.0766C58.8518 32.0766 58.7792 32.0766 58.7792 32.0403C58.7792 32.0039 58.7974 32.0039 58.8518 31.9858C58.8881 31.9676 58.9244 31.9313 58.9063 31.8586L58.4889 30.7506C58.4707 30.7143 58.4707 30.7143 58.4344 30.7143H57.3273V30.7688ZM58.3981 30.5145C58.4163 30.5145 58.4344 30.4963 58.4163 30.4782L57.9444 29.1885C57.9444 29.1704 57.9263 29.134 57.9263 29.134C57.9081 29.134 57.9081 29.1522 57.89 29.1885L57.3999 30.4782C57.3999 30.4963 57.3999 30.5145 57.4181 30.5145H58.3981Z" fill="#515151"/>
  <path d="M61.1932 29.697C61.1932 28.8978 61.1932 28.7525 61.175 28.589C61.1569 28.4074 61.1206 28.3347 60.9573 28.2984C60.921 28.2803 60.8302 28.2802 60.7576 28.2802C60.7032 28.2802 60.6669 28.2621 60.6669 28.2258C60.6669 28.1894 60.7032 28.1713 60.7758 28.1713C61.048 28.1713 61.3747 28.1894 61.5199 28.1894C61.6832 28.1894 62.0099 28.1713 62.3184 28.1713C62.9718 28.1713 63.8429 28.1713 64.4237 28.7707C64.6778 29.0431 64.9318 29.4791 64.9318 30.0966C64.9318 30.7505 64.6596 31.2591 64.3511 31.5498C64.1151 31.804 63.5707 32.1673 62.6088 32.1673C62.4273 32.1673 62.2095 32.1492 62.0099 32.131C61.8102 32.1128 61.6288 32.0947 61.5017 32.0947C61.4473 32.0947 61.3202 32.0947 61.2113 32.0947C61.0843 32.0947 60.9573 32.1128 60.8484 32.1128C60.7758 32.1128 60.7395 32.0947 60.7395 32.0583C60.7395 32.0402 60.7576 32.022 60.8302 32.022C60.9028 32.022 60.9754 32.0039 61.0117 32.0039C61.1206 31.9857 61.1387 31.8585 61.1569 31.7132C61.175 31.4953 61.175 31.0775 61.175 30.6052V29.697H61.1932ZM61.8465 30.2783C61.8465 30.8414 61.8465 31.241 61.8647 31.3318C61.8647 31.4589 61.8828 31.6769 61.9191 31.7314C61.9917 31.8222 62.1914 31.9494 62.6088 31.9494C63.1351 31.9494 63.4981 31.8404 63.8066 31.5679C64.1514 31.2773 64.2422 30.805 64.2422 30.2601C64.2422 29.588 63.97 29.1703 63.734 28.9523C63.244 28.4982 62.6632 28.4256 62.2458 28.4256C62.1369 28.4256 61.9554 28.4437 61.901 28.4619C61.8465 28.4801 61.8465 28.5164 61.8465 28.5709C61.8465 28.7525 61.8465 29.2066 61.8465 29.6244V30.2783Z" fill="#515151"/>
  <path d="M66.4564 29.697C66.4564 28.8978 66.4564 28.7525 66.4564 28.589C66.4383 28.4073 66.402 28.3347 66.2386 28.2984C66.2023 28.2802 66.1116 28.2802 66.039 28.2802C65.9845 28.2802 65.9482 28.262 65.9482 28.2257C65.9482 28.1894 65.9845 28.1712 66.0571 28.1712C66.2023 28.1712 66.3475 28.1712 66.4746 28.1712C66.6016 28.1712 66.7286 28.1894 66.8012 28.1894C66.9646 28.1894 68.0172 28.1894 68.1079 28.1894C68.1987 28.1712 68.2894 28.1712 68.3257 28.1531C68.3439 28.1531 68.3802 28.1349 68.4165 28.1349C68.4346 28.1349 68.4528 28.1531 68.4528 28.1712C68.4528 28.2075 68.4346 28.2802 68.4165 28.5163C68.4165 28.5708 68.3983 28.807 68.3983 28.8614C68.3983 28.8796 68.3802 28.9159 68.3439 28.9159C68.3076 28.9159 68.2894 28.8978 68.2894 28.8433C68.2894 28.807 68.2894 28.7161 68.2531 28.6616C68.2168 28.5708 68.1624 28.4982 67.9083 28.48C67.8176 28.4618 67.2731 28.4618 67.1642 28.4618C67.1461 28.4618 67.1279 28.48 67.1279 28.5163V29.8423C67.1279 29.8786 67.1279 29.8968 67.1642 29.8968C67.2731 29.8968 67.8902 29.8968 67.9991 29.8786C68.1261 29.8605 68.1987 29.8605 68.2531 29.806C68.2894 29.7696 68.3076 29.7333 68.3439 29.7333C68.362 29.7333 68.3802 29.7333 68.3802 29.7696C68.3802 29.806 68.362 29.8786 68.3439 30.1511C68.3439 30.2601 68.3257 30.4599 68.3257 30.4962C68.3257 30.5325 68.3257 30.587 68.2713 30.587C68.235 30.587 68.2168 30.5689 68.2168 30.5325C68.2168 30.478 68.2168 30.4054 68.1987 30.3509C68.1805 30.2419 68.1079 30.1692 67.9083 30.1511C67.8176 30.1329 67.2913 30.1329 67.1642 30.1329C67.1461 30.1329 67.1279 30.1511 67.1279 30.1874V30.6052C67.1279 30.7868 67.1279 31.2591 67.1279 31.4226C67.1461 31.7858 67.2187 31.8585 67.7631 31.8585C67.8902 31.8585 68.1261 31.8585 68.2531 31.804C68.3983 31.7495 68.4528 31.6405 68.4891 31.4226C68.5072 31.3681 68.5072 31.3499 68.5435 31.3499C68.5798 31.3499 68.5798 31.3862 68.5798 31.4407C68.5798 31.5679 68.5435 31.913 68.5072 32.022C68.4709 32.1673 68.4165 32.1673 68.2168 32.1673C67.8176 32.1673 67.5272 32.1491 67.3094 32.1491C67.0916 32.1309 66.9283 32.1309 66.7649 32.1309C66.7105 32.1309 66.6016 32.1309 66.4746 32.1309C66.3475 32.1309 66.2205 32.1491 66.1116 32.1491C66.039 32.1491 66.0027 32.1309 66.0027 32.0946C66.0027 32.0765 66.0208 32.0583 66.0934 32.0583C66.166 32.0583 66.2386 32.0401 66.2749 32.0401C66.3838 32.022 66.402 31.8948 66.4201 31.7495C66.4383 31.5315 66.4383 31.1138 66.4383 30.6415V29.697H66.4564Z" fill="#515151"/>
  <path d="M70.3764 28.2077C70.3945 28.1168 70.4308 28.0624 70.4671 28.0624C70.5034 28.0624 70.5397 28.0805 70.6123 28.2258L72.0461 31.1684L73.4617 28.1713C73.498 28.0805 73.5343 28.0442 73.5706 28.0442C73.625 28.0442 73.6432 28.0987 73.6613 28.2077L74.1332 31.4408C74.1876 31.7678 74.2239 31.9313 74.3873 31.9676C74.5325 32.0221 74.6414 32.0221 74.7139 32.0221C74.7684 32.0221 74.7865 32.0221 74.7865 32.0584C74.7865 32.0947 74.7321 32.1129 74.6595 32.1129C74.5325 32.1129 73.8065 32.0947 73.6069 32.0766C73.4798 32.0584 73.4617 32.0584 73.4617 32.0221C73.4617 32.0039 73.4798 31.9858 73.5161 31.9676C73.5524 31.9494 73.5706 31.8949 73.5343 31.7315L73.2257 29.4246H73.2076L72.0642 31.8041C71.9372 32.0584 71.919 32.0947 71.8646 32.0947C71.8101 32.0947 71.7738 31.9858 71.6831 31.8405C71.5561 31.6043 71.1386 30.8051 71.0842 30.6598C71.0298 30.5508 70.7212 29.8969 70.5397 29.4973H70.5216L70.2494 31.5862C70.2312 31.677 70.2312 31.7496 70.2312 31.8223C70.2312 31.9313 70.3038 31.9676 70.3945 31.9858C70.4853 32.0039 70.5579 32.0039 70.6123 32.0039C70.6486 32.0039 70.6849 32.0221 70.6849 32.0403C70.6849 32.0947 70.6305 32.0947 70.5579 32.0947C70.3401 32.0947 70.1042 32.0766 70.0134 32.0766C69.9045 32.0766 69.6686 32.0947 69.4871 32.0947C69.4327 32.0947 69.3964 32.0766 69.3964 32.0403C69.3964 32.0221 69.4327 32.0039 69.4871 32.0039C69.5234 32.0039 69.5597 32.0039 69.6504 31.9858C69.7956 31.9494 69.8319 31.7496 69.8682 31.568L70.3764 28.2077Z" fill="#515151"/>
  <path d="M76.4926 30.7869C76.4926 30.4962 76.4382 30.3873 76.3656 30.242C76.3293 30.1511 75.6215 29.0068 75.44 28.7343C75.3129 28.5345 75.1859 28.4074 75.077 28.3529C75.0044 28.3166 74.9137 28.2802 74.8592 28.2802C74.8229 28.2802 74.7866 28.2621 74.7866 28.2258C74.7866 28.1894 74.8229 28.1713 74.8774 28.1713C74.9681 28.1713 75.3674 28.1894 75.5307 28.1894C75.6396 28.1894 75.8574 28.1713 76.0933 28.1713C76.1478 28.1713 76.1659 28.1894 76.1659 28.2258C76.1659 28.2621 76.1296 28.2621 76.057 28.2802C76.0026 28.2802 75.9844 28.3347 75.9844 28.3711C75.9844 28.4074 76.0026 28.4801 76.0389 28.5527C76.1115 28.7162 76.8374 29.9695 76.9282 30.1148C76.9826 29.9877 77.636 28.8433 77.7086 28.6799C77.763 28.5709 77.7812 28.4801 77.7812 28.4074C77.7812 28.3529 77.763 28.2984 77.6723 28.2802C77.6178 28.2621 77.5815 28.2621 77.5815 28.2258C77.5815 28.1894 77.6178 28.1713 77.6723 28.1713C77.8538 28.1713 78.0171 28.1894 78.1623 28.1894C78.2712 28.1894 78.616 28.1713 78.7249 28.1713C78.7793 28.1713 78.8156 28.1894 78.8156 28.2076C78.8156 28.2439 78.7793 28.2621 78.7249 28.2621C78.6705 28.2621 78.5797 28.2802 78.489 28.3166C78.3801 28.3711 78.3256 28.4256 78.1986 28.5709C78.0171 28.7888 77.2911 30.0058 77.2004 30.242C77.1278 30.4236 77.1278 30.5871 77.1278 30.7687V31.2046C77.1278 31.2955 77.1278 31.5134 77.146 31.7314C77.1641 31.8767 77.2004 32.0039 77.3637 32.022C77.4363 32.0402 77.5452 32.0402 77.636 32.0402C77.6904 32.0402 77.7267 32.0583 77.7267 32.0765C77.7267 32.1128 77.6904 32.131 77.6178 32.131C77.2912 32.131 76.9645 32.1128 76.8193 32.1128C76.6922 32.1128 76.3656 32.131 76.1659 32.131C76.0933 32.131 76.057 32.1128 76.057 32.0765C76.057 32.0583 76.0933 32.0402 76.1478 32.0402C76.2204 32.0402 76.2748 32.022 76.3293 32.022C76.4382 32.0039 76.4745 31.8767 76.4926 31.7314C76.5108 31.5134 76.5108 31.2955 76.5108 31.2046V30.7869H76.4926Z" fill="#515151"/>
  <path d="M16.275 17.6001C13.952 16.474 11.6834 15.257 9.06996 14.4941C6.11171 13.6404 2.06454 14.0218 0.612641 16.1107C-1.32928 18.9261 1.71972 20.7788 4.53277 19.8161C6.76507 19.0532 9.2333 18.3449 11.4837 17.582C13.0082 17.1097 14.6961 17.0189 16.275 17.6001Z" fill="#3A6FB6"/>
  <path d="M16.2387 20.1611C14.696 20.7242 13.1353 21.251 11.6289 22.1228C9.94107 23.1037 8.32583 25.138 8.65251 26.7183C9.08808 28.8435 11.2841 28.2622 12.0826 26.5548C12.7178 25.1925 13.4619 23.7394 14.1153 22.3771C14.5872 21.4326 15.2768 20.6152 16.2387 20.1611Z" fill="#3A6FB6"/>
  <path d="M43.6433 27.681C42.6088 24.0846 37.6179 23.6486 34.6234 23.2127C32.7177 22.9221 30.7395 22.6315 28.9065 22.1229C26.5653 21.469 25.4038 20.5971 26.1116 18.5991C26.4746 17.9088 26.9283 17.2731 27.3638 16.6737C28.8339 14.7302 30.6488 13.2044 32.4818 11.5515C34.0244 10.1892 36.3838 9.06301 37.2368 7.21029C37.636 6.35658 37.4909 4.54019 35.4037 4.12242C33.4437 3.72281 32.6088 4.75816 31.5925 6.33842C29.6143 9.3718 28.6161 13.9128 26.5472 13.4405C23.8248 12.387 26.3112 8.93586 26.4201 6.46557C26.5653 3.01442 24.6778 -1.56289 19.8503 0.52596C16.4746 2.05173 18.8339 7.08314 19.7232 9.46262C20.9029 12.5686 21.5925 18.9624 20.7759 20.7061C20.4855 21.469 18.2169 25.7375 17.2731 30.4965C16.9102 32.222 16.6924 34.7468 18.5254 35.6732C20.068 36.3997 21.3929 35.8185 22.6996 34.874C25.4401 32.8033 25.9664 28.789 25.8394 25.6467C26.0027 22.9221 28.4165 23.7395 29.4328 24.8838C31.7014 27.5176 34.1333 30.2966 37.509 31.6226C38.8339 32.1312 41.1751 32.7125 42.4273 31.8406C43.5707 30.9142 44.0063 29.0797 43.6433 27.681Z" fill="#3A6FB6"/>
  <path d="M18.0718 30.5147C17.491 31.7499 17.5818 33.5844 18.344 34.7106C18.5799 35.0557 19.4874 35.2918 19.0881 34.6743C18.4892 33.7842 18.5073 32.1313 18.9429 31.1868C19.1063 30.8417 18.217 30.2059 18.0718 30.5147Z" fill="white"/>
  <path d="M19.8866 1.34283C18.4347 1.86959 19.1425 4.92113 19.3421 6.04729C19.3421 6.04729 19.9229 6.62854 19.8503 5.5387C19.7777 4.57601 19.1062 1.70611 20.3584 1.25201C20.6125 1.17936 19.9773 1.32467 19.8866 1.34283Z" fill="white"/>
  <path d="M1.39314 16.492C0.957572 16.7462 0.667191 17.3092 0.939423 17.7813C0.993869 17.8721 1.55648 17.5997 1.55648 17.6179C1.28425 17.1457 1.55648 16.601 1.99205 16.3468C2.0102 16.3286 1.79241 16.3649 1.77427 16.3649C1.64722 16.4012 1.50203 16.4376 1.39314 16.492Z" fill="white"/>
  <path d="M9.86857 26.9724C9.68708 26.7 9.70523 26.3913 9.70523 26.0826C9.70523 25.8647 9.26966 25.9374 9.26966 26.1189C9.26966 26.4821 9.25151 26.8453 9.46929 27.154C9.57819 27.2993 9.99561 27.1358 9.86857 26.9724Z" fill="white"/>
  <path d="M33.952 4.68552C33.1716 5.01237 32.6271 5.73872 32.1734 6.42875C32.1915 6.41059 32.01 6.91903 32.5182 6.46507C32.5908 6.41059 32.6634 6.35611 32.8267 6.15637C33.226 5.64793 33.6616 4.88526 34.2786 4.61288C34.2968 4.61288 34.4964 4.50393 34.3694 4.54025C34.2423 4.57657 34.0972 4.63104 33.952 4.68552Z" fill="white"/>
  <path d="M41.919 4.50382C41.5378 4.81251 41.5015 5.3028 41.4834 5.7386C41.4834 6.30152 41.5015 6.84628 41.683 7.39104C41.6286 7.24577 41.5197 5.81124 41.919 5.04858C42.4997 4.19512 41.9553 4.4675 41.919 4.50382Z" fill="white"/>
  <path d="M51.9011 5.13962C51.5381 5.12146 51.03 5.24857 50.8666 5.61175C50.7214 5.95676 50.7033 6.39257 50.7577 6.75574C50.8122 7.11891 51.4111 6.66495 51.4111 6.57415C51.3929 6.33809 51.3929 6.10203 51.4111 5.86597C51.4292 5.73886 51.4474 5.61175 51.4837 5.48463C51.5018 5.43016 51.5563 5.26673 51.6833 5.23041C51.7015 5.23041 51.9192 5.13962 51.9011 5.13962Z" fill="white"/>
  <path d="M67.7631 4.66717C67.3094 4.46743 66.4382 4.97587 66.0571 5.28457C65.5308 5.72037 65.1315 6.35593 65.313 7.10043C65.3674 7.2457 65.9482 7.39097 65.9664 6.91885C65.8756 6.55567 65.8575 6.21066 66.0208 5.86564C66.1297 5.64774 66.2567 5.46615 66.4382 5.33904C66.7649 5.10298 67.1823 5.03035 67.4183 4.97587C67.999 4.86692 67.7631 4.66717 67.7631 4.66717Z" fill="white"/>
  <path d="M67.1279 21.5961C68.3076 22.159 71.1388 21.2147 71.1388 21.2147C71.1388 21.2147 68.7068 21.8503 67.7812 21.4326C67.0734 21.1784 67.019 21.4145 67.1279 21.5961Z" fill="white"/>
  <path d="M55.5307 20.015C57.0552 19.7971 58.3256 19.0163 59.4509 17.9631C59.3783 18.0176 59.4509 17.5455 58.8157 18.1084C58.0171 18.8166 57.0371 19.5792 55.9663 19.8516C55.8937 19.8698 55.2767 20.0514 55.5307 20.015Z" fill="white"/>
</svg>
