<?xml version="1.0" ?><svg width="32px" height="32px" viewBox="0 0 32 32" xmlns="http://www.w3.org/2000/svg"><title/><g data-name="Layer 6" id="Layer_6"><path d="M21,6V5.83A3.84,3.84,0,0,0,17.17,2H14.83A3.84,3.84,0,0,0,11,5.83V6a5,5,0,0,0-5,5V24a2,2,0,0,0,2,2h7v2a1,1,0,0,0,2,0V26h7a2,2,0,0,0,2-2V11A5,5,0,0,0,21,6Zm-8-.17A1.83,1.83,0,0,1,14.83,4h2.34A1.83,1.83,0,0,1,19,5.83V6H13ZM11,8H21a3,3,0,0,1,3,3v4H19.31c0-.11,0-.22,0-.33,0-1.49-1.92-4.38-2.51-5.24a1,1,0,0,0-1.64,0c-.59.86-2.51,3.75-2.51,5.24,0,.11,0,.22,0,.33H8V11A3,3,0,0,1,11,8Zm3.91,7.44a1.32,1.32,0,0,1-.24-.77A9.52,9.52,0,0,1,16,11.85a9.52,9.52,0,0,1,1.33,2.82,1.34,1.34,0,0,1-.23.76A1.4,1.4,0,0,1,14.91,15.44ZM8,24V17h5.64a3.28,3.28,0,0,0,4.72,0H24v7Z"/></g></svg>