<?xml version="1.0" ?><svg width="32px" height="32px" viewBox="0 0 32 32" xmlns="http://www.w3.org/2000/svg"><title/><g data-name="Layer 13" id="Layer_13"><path d="M24.63,2a5.38,5.38,0,0,0-5.37,5.08L7.14,19.2a3.46,3.46,0,0,0-.3,4.54L2.29,28.29a1,1,0,0,0,0,1.42,1,1,0,0,0,1.42,0l4.55-4.55a3.41,3.41,0,0,0,2.08.72,3.47,3.47,0,0,0,2.46-1L24.92,12.74A5.37,5.37,0,0,0,24.63,2Zm.08,8.75h-.18a1,1,0,0,0-.73.29L11.39,23.45a1.48,1.48,0,0,1-1.69.26L23.58,9.83a1,1,0,0,0-1.41-1.41L8.29,22.3a1.48,1.48,0,0,1,.26-1.69L21,8.2a1,1,0,0,0,.29-.73s0-.1,0-.1h0a3.38,3.38,0,1,1,3.46,3.37Z"/></g></svg>