<?xml version="1.0" ?><svg width="32px" height="32px" viewBox="0 0 32 32" xmlns="http://www.w3.org/2000/svg"><title/><g data-name="Layer 14" id="Layer_14"><path d="M29,15H26V9a1,1,0,0,0-1-1H22V5.89L28.71,8A.92.92,0,0,0,29,8a1,1,0,0,0,.29-2l-13-4a1.14,1.14,0,0,0-.58,0l-13,4A1,1,0,1,0,3.29,8L10,5.89V8H7A1,1,0,0,0,6,9v6H3a1,1,0,0,0-1,1V29a1,1,0,0,0,1,1H29a1,1,0,0,0,1-1V16A1,1,0,0,0,29,15ZM20,5.28V12H12V5.28l4-1.23ZM4,17H6V28H4Zm4-1V10h2v3a1,1,0,0,0,1,1H21a1,1,0,0,0,1-1V10h2V28H21V21a1,1,0,0,0-1-1H12a1,1,0,0,0-1,1v7H8Zm5,12V22h6v6Zm15,0H26V17h2Z"/><path d="M14,9h1v1a1,1,0,0,0,2,0V9h1a1,1,0,0,0,0-2H17V6a1,1,0,0,0-2,0V7H14a1,1,0,0,0,0,2Z"/></g></svg>